<svg width="186" height="124" viewBox="0 0 186 124" fill="none" xmlns="http://www.w3.org/2000/svg">
<path d="M131.708 50.1684H144.596V47.5351H131.708V35.6506H148.588V33H127V69H149V66.3494H131.708V50.1684Z" fill="#2D746E"/>
<path d="M42 69H47V33H42V69Z" fill="#2D746E"/>
<path d="M84.7755 33H81.6937L64.5361 50.5322V33H60V69H64.5361V53.3734L67.2716 50.6188L82.8018 69H89L70.5785 47.2926L84.7755 33Z" fill="#2D746E"/>
<path d="M162.819 54.9167L168.774 38.6815L175.212 54.9167H162.819ZM180.805 69H186L170.707 33H168.515L155 69H157.658L162.042 57.0688H176.075L180.805 69Z" fill="#2D746E"/>
<path d="M26.3823 61.2417L2.53217 33H0V68.589H2.6177V40.2103L26.8442 69H29V33H26.3823V61.2417Z" fill="#2D746E"/>
<path d="M90 35.6506H102.664V69H107.336V35.6506H120V33H90V35.6506Z" fill="#2D746E"/>
<path d="M61.016 89.664L61.08 89.28H62.456C63.0747 88.32 63.704 87.3493 64.344 86.368C65.0053 85.3867 65.72 84.4693 66.488 83.616C67.2773 82.7413 68.1413 81.9733 69.08 81.312C70.04 80.6293 71.1067 80.1387 72.28 79.84V79.776C71.7253 79.776 71.16 79.776 70.584 79.776C70.008 79.7547 69.3787 79.7333 68.696 79.712C68.0347 79.6907 67.288 79.68 66.456 79.68C65.6453 79.6587 64.7173 79.648 63.672 79.648C61.56 79.648 59.64 79.8293 57.912 80.192C56.184 80.5547 54.7013 81.0667 53.464 81.728C52.248 82.3893 51.2987 83.168 50.616 84.064C49.9333 84.9387 49.5707 85.9093 49.528 86.976C49.4853 88 49.848 88.8213 50.616 89.44C51.4053 90.0373 52.472 90.336 53.816 90.336C54.6907 90.336 55.5867 90.1973 56.504 89.92C57.4213 89.6213 58.2533 89.216 59 88.704C59.7467 88.1707 60.3547 87.5413 60.824 86.816C61.3147 86.0907 61.56 85.3013 61.56 84.448C61.56 84.0853 61.528 83.7653 61.464 83.488C61.4 83.1893 61.336 82.9227 61.272 82.688L61.592 82.624C61.8267 83.2213 61.944 83.84 61.944 84.48C61.944 85.248 61.72 86.0053 61.272 86.752C60.824 87.4987 60.2267 88.1707 59.48 88.768C58.7333 89.344 57.8587 89.8133 56.856 90.176C55.8747 90.5387 54.8507 90.72 53.784 90.72C52.3547 90.72 51.224 90.4 50.392 89.76C49.56 89.12 49.144 88.224 49.144 87.072C49.144 85.8987 49.5387 84.7787 50.328 83.712C51.1387 82.624 52.3013 81.664 53.816 80.832C55.3307 80 57.1867 79.3387 59.384 78.848C61.6027 78.3573 64.12 78.112 66.936 78.112C68.8133 78.112 70.4453 78.1333 71.832 78.176C73.24 78.2187 74.2853 78.24 74.968 78.24C75.4587 78.24 75.896 78.2187 76.28 78.176C76.6853 78.1333 77.048 78.112 77.368 78.112C77.7947 78.112 78.1573 78.144 78.456 78.208C78.7547 78.2507 78.904 78.432 78.904 78.752C78.904 79.0293 78.8507 79.2427 78.744 79.392C78.6373 79.5413 78.3707 79.648 77.944 79.712C77.5387 79.776 76.9307 79.8187 76.12 79.84C75.3093 79.84 74.2107 79.84 72.824 79.84C71.5867 80.288 70.552 80.8853 69.72 81.632C68.888 82.3573 68.1627 83.1573 67.544 84.032C66.9467 84.8853 66.4027 85.7707 65.912 86.688C65.4427 87.584 64.92 88.4267 64.344 89.216C64.6 89.1733 64.92 89.1413 65.304 89.12C65.7093 89.0987 66.104 89.0667 66.488 89.024C66.872 88.9813 67.224 88.928 67.544 88.864C67.864 88.8 68.0667 88.704 68.152 88.576C68.344 88.32 68.568 88.064 68.824 87.808C69.1013 87.552 69.464 87.424 69.912 87.424C70.1893 87.424 70.456 87.4667 70.712 87.552C69.8373 88.2987 69.016 89.1093 68.248 89.984C67.48 90.8373 66.7867 91.7547 66.168 92.736L65.976 92.64C66.1893 92.0427 66.4453 91.4773 66.744 90.944C67.0427 90.3893 67.3413 89.8347 67.64 89.28C67.3627 89.3227 67.0533 89.3653 66.712 89.408C66.392 89.4293 66.072 89.4613 65.752 89.504C65.432 89.5253 65.1333 89.5467 64.856 89.568C64.5787 89.5893 64.3547 89.6107 64.184 89.632C63.416 90.912 62.584 92.1813 61.688 93.44C60.8133 94.6987 59.832 95.84 58.744 96.864C57.656 97.8667 56.44 98.688 55.096 99.328C53.752 99.9467 52.2373 100.256 50.552 100.256C49.976 100.256 49.3573 100.181 48.696 100.032C48.056 99.8827 47.4587 99.648 46.904 99.328C46.3493 99.008 45.8907 98.6027 45.528 98.112C45.1653 97.6213 44.984 97.0347 44.984 96.352C44.984 95.9253 45.1013 95.5307 45.336 95.168C45.592 94.8053 45.9547 94.624 46.424 94.624C46.7653 94.624 47.0213 94.7307 47.192 94.944C47.384 95.1573 47.48 95.424 47.48 95.744C47.48 96.0427 47.4053 96.3093 47.256 96.544C47.1067 96.7573 46.8827 96.864 46.584 96.864C46.456 96.864 46.3493 96.8533 46.264 96.832C46.264 96.896 46.2853 97.0987 46.328 97.44C46.392 97.76 46.5627 98.1013 46.84 98.464C47.1173 98.8267 47.5547 99.1573 48.152 99.456C48.7707 99.7333 49.624 99.872 50.712 99.872C52.0987 99.872 53.368 99.5307 54.52 98.848C55.672 98.144 56.7173 97.28 57.656 96.256C58.5947 95.232 59.4373 94.1227 60.184 92.928C60.952 91.7333 61.6453 90.6453 62.264 89.664H61.016ZM80.2903 88.992H82.3703C81.5809 90.1013 80.8236 91.1787 80.0983 92.224C79.3729 93.2693 78.7223 94.24 78.1463 95.136C77.5916 96.0107 77.1436 96.7893 76.8023 97.472C76.4609 98.1333 76.2903 98.656 76.2903 99.04C76.2903 99.5947 76.5783 99.872 77.1543 99.872C77.6023 99.872 78.1676 99.6587 78.8503 99.232C79.5543 98.784 80.3116 98.176 81.1223 97.408C81.9329 96.64 82.7649 95.744 83.6183 94.72C84.4716 93.696 85.2823 92.608 86.0503 91.456L86.2423 91.52C85.6663 92.3947 84.9836 93.344 84.1943 94.368C83.4263 95.3707 82.6156 96.3093 81.7623 97.184C80.9089 98.0587 80.0556 98.7947 79.2023 99.392C78.3489 99.968 77.5489 100.256 76.8023 100.256C76.1836 100.256 75.7249 100.107 75.4263 99.808C75.1489 99.488 75.0103 99.1147 75.0103 98.688C75.0103 98.3893 75.0529 98.1013 75.1383 97.824C75.2449 97.5253 75.3516 97.2267 75.4583 96.928L75.3943 96.896C75.1169 97.1947 74.7649 97.5467 74.3383 97.952C73.9329 98.336 73.4849 98.6987 72.9943 99.04C72.5249 99.3813 72.0343 99.6693 71.5223 99.904C71.0103 100.139 70.5196 100.256 70.0503 100.256C69.2609 100.256 68.7063 100.011 68.3863 99.52C68.0663 99.0293 67.9062 98.4747 67.9062 97.856C67.9062 96.9813 68.1836 96.0213 68.7383 94.976C69.2929 93.9093 69.9969 92.9173 70.8503 92C71.7036 91.0613 72.6316 90.2827 73.6343 89.664C74.6369 89.0453 75.5863 88.736 76.4823 88.736C76.9089 88.736 77.2823 88.8 77.6023 88.928C77.9223 89.0347 78.1889 89.1947 78.4023 89.408C78.6156 89.6 78.7756 89.824 78.8823 90.08C79.0103 90.336 79.1063 90.6027 79.1703 90.88H79.2343L80.2903 88.992ZM69.8263 97.952C69.8263 98.4427 69.9223 98.8267 70.1143 99.104C70.3276 99.36 70.6156 99.488 70.9783 99.488C71.3409 99.488 71.7676 99.36 72.2583 99.104C72.7489 98.8267 73.2609 98.464 73.7943 98.016C74.3276 97.568 74.8503 97.056 75.3623 96.48C75.8956 95.8827 76.3649 95.2533 76.7703 94.592C77.1756 93.9307 77.5063 93.2587 77.7623 92.576C78.0183 91.8933 78.1463 91.2427 78.1463 90.624C78.1463 90.1333 78.0076 89.76 77.7303 89.504C77.4529 89.248 77.1116 89.12 76.7063 89.12C76.0663 89.12 75.3516 89.3973 74.5623 89.952C73.7729 90.5067 73.0263 91.2213 72.3223 92.096C71.6183 92.9493 71.0209 93.8987 70.5303 94.944C70.0609 95.9893 69.8263 96.992 69.8263 97.952ZM80.269 100C80.7383 99.2107 81.2823 98.3467 81.901 97.408C82.4983 96.4693 83.1063 95.52 83.725 94.56C84.365 93.5787 84.9837 92.6187 85.581 91.68C86.1997 90.72 86.7543 89.824 87.245 88.992H89.197L84.973 94.944L85.037 95.008C85.4423 94.5173 85.933 93.92 86.509 93.216C87.085 92.4907 87.7143 91.7973 88.397 91.136C89.101 90.4747 89.8477 89.9093 90.637 89.44C91.4263 88.9707 92.237 88.736 93.069 88.736C93.581 88.736 93.997 88.8747 94.317 89.152C94.6583 89.408 94.829 89.792 94.829 90.304C94.829 90.6027 94.7223 90.9653 94.509 91.392C94.2957 91.8187 94.0397 92.256 93.741 92.704C93.4637 93.1307 93.1757 93.5467 92.877 93.952C92.5783 94.3573 92.3437 94.688 92.173 94.944L92.237 95.008C92.685 94.368 93.2183 93.6853 93.837 92.96C94.477 92.2347 95.149 91.5627 95.853 90.944C96.5783 90.304 97.3143 89.7813 98.061 89.376C98.829 88.9493 99.565 88.736 100.269 88.736C100.888 88.736 101.346 88.8853 101.645 89.184C101.965 89.4827 102.125 89.8987 102.125 90.432C102.125 90.7947 101.997 91.2213 101.741 91.712C101.506 92.2027 101.197 92.7253 100.813 93.28C100.45 93.8133 100.056 94.3573 99.629 94.912C99.2023 95.4667 98.797 96 98.413 96.512C98.0503 97.024 97.741 97.504 97.485 97.952C97.2503 98.3787 97.133 98.7413 97.133 99.04C97.133 99.296 97.2077 99.4987 97.357 99.648C97.5277 99.7973 97.7303 99.872 97.965 99.872C98.477 99.872 99.0743 99.6693 99.757 99.264C100.461 98.8587 101.208 98.2933 101.997 97.568C102.808 96.8427 103.65 95.9787 104.525 94.976C105.4 93.952 106.285 92.832 107.181 91.616L107.437 91.744C106.562 92.9387 105.688 94.0587 104.813 95.104C103.938 96.128 103.085 97.024 102.253 97.792C101.442 98.56 100.653 99.168 99.885 99.616C99.1383 100.043 98.445 100.256 97.805 100.256C97.1437 100.256 96.653 100.075 96.333 99.712C96.013 99.328 95.853 98.8587 95.853 98.304C95.853 97.8987 95.9703 97.4507 96.205 96.96C96.461 96.448 96.7703 95.9253 97.133 95.392C97.517 94.8587 97.9223 94.3253 98.349 93.792C98.7757 93.2587 99.1703 92.7467 99.533 92.256C99.917 91.7653 100.226 91.3173 100.461 90.912C100.717 90.5067 100.845 90.176 100.845 89.92C100.845 89.6213 100.76 89.4187 100.589 89.312C100.44 89.184 100.248 89.12 100.013 89.12C99.5863 89.12 99.085 89.2693 98.509 89.568C97.933 89.8453 97.325 90.2507 96.685 90.784C96.0663 91.296 95.4263 91.904 94.765 92.608C94.1037 93.2907 93.453 94.0373 92.813 94.848C92.1943 95.6373 91.6077 96.48 91.053 97.376C90.4983 98.2507 90.0183 99.1253 89.613 100H87.565C88.1623 98.9333 88.8023 97.8667 89.485 96.8C90.189 95.7333 90.8397 94.752 91.437 93.856C92.0343 92.9387 92.5357 92.1493 92.941 91.488C93.3463 90.8053 93.549 90.304 93.549 89.984C93.549 89.408 93.2503 89.12 92.653 89.12C92.1197 89.12 91.5223 89.3227 90.861 89.728C90.1997 90.112 89.5277 90.624 88.845 91.264C88.1623 91.8827 87.4903 92.5973 86.829 93.408C86.1677 94.1973 85.5383 94.9973 84.941 95.808C84.365 96.6187 83.853 97.3973 83.405 98.144C82.957 98.8693 82.605 99.488 82.349 100H80.269ZM110.893 88.992C109.719 90.6773 108.727 92.096 107.917 93.248C107.106 94.4 106.445 95.36 105.933 96.128C105.442 96.896 105.079 97.504 104.845 97.952C104.631 98.4 104.525 98.7627 104.525 99.04C104.525 99.5947 104.749 99.872 105.197 99.872C105.623 99.872 106.114 99.7227 106.669 99.424C107.245 99.104 107.842 98.6987 108.461 98.208C109.079 97.7173 109.698 97.1627 110.317 96.544C110.935 95.9253 111.511 95.3173 112.045 94.72C112.599 94.1013 113.079 93.5147 113.485 92.96C113.911 92.384 114.221 91.9147 114.413 91.552L114.669 91.712C114.413 92.1387 114.061 92.6507 113.613 93.248C113.186 93.8453 112.695 94.464 112.141 95.104C111.586 95.7227 110.999 96.3413 110.381 96.96C109.762 97.5787 109.133 98.1333 108.493 98.624C107.853 99.1147 107.223 99.5093 106.605 99.808C106.007 100.107 105.453 100.256 104.941 100.256C104.365 100.256 103.938 100.096 103.661 99.776C103.383 99.456 103.245 99.104 103.245 98.72C103.245 98.272 103.341 97.8027 103.533 97.312C103.746 96.8 104.077 96.1813 104.525 95.456C104.973 94.7307 105.549 93.856 106.253 92.832C106.978 91.7867 107.842 90.5067 108.845 88.992H110.893ZM112.749 83.04C113.047 83.04 113.293 83.1467 113.485 83.36C113.677 83.552 113.773 83.7973 113.773 84.096C113.773 84.3947 113.677 84.6507 113.485 84.864C113.293 85.056 113.047 85.152 112.749 85.152C112.45 85.152 112.205 85.056 112.013 84.864C111.821 84.6507 111.725 84.3947 111.725 84.096C111.725 83.7973 111.821 83.552 112.013 83.36C112.205 83.1467 112.45 83.04 112.749 83.04ZM125.123 77.728C123.224 80.608 121.571 83.104 120.163 85.216C118.755 87.3067 117.549 89.0987 116.547 90.592C115.544 92.0853 114.723 93.3227 114.083 94.304C113.443 95.264 112.941 96.0533 112.579 96.672C112.216 97.2907 111.96 97.7813 111.811 98.144C111.683 98.5067 111.618 98.816 111.618 99.072C111.618 99.6053 111.853 99.872 112.323 99.872C112.856 99.872 113.475 99.6587 114.179 99.232C114.904 98.784 115.672 98.1867 116.483 97.44C117.315 96.672 118.157 95.7867 119.01 94.784C119.864 93.76 120.696 92.672 121.507 91.52L121.859 91.648C121.091 92.736 120.28 93.792 119.427 94.816C118.573 95.8187 117.752 96.6933 116.963 97.44C115.917 98.4213 115.011 99.136 114.243 99.584C113.496 100.032 112.813 100.256 112.195 100.256C111.533 100.256 111.053 100.107 110.755 99.808C110.477 99.5093 110.338 99.1147 110.338 98.624C110.338 98.176 110.413 97.7173 110.562 97.248C110.733 96.7573 111.011 96.1813 111.395 95.52C111.779 94.8373 112.28 94.016 112.899 93.056C113.539 92.096 114.317 90.9227 115.235 89.536C116.173 88.128 117.272 86.464 118.531 84.544C119.789 82.6027 121.24 80.3307 122.883 77.728H125.123ZM125.08 88.992C124.312 90.1013 123.544 91.168 122.776 92.192C122.008 93.216 121.315 94.1547 120.696 95.008C120.099 95.8613 119.608 96.6187 119.224 97.28C118.84 97.92 118.648 98.432 118.648 98.816C118.648 99.4347 118.947 99.744 119.544 99.744C120.163 99.744 120.878 99.4453 121.688 98.848C122.52 98.2507 123.395 97.4613 124.312 96.48C125.23 95.4773 126.158 94.336 127.096 93.056C128.056 91.7547 128.974 90.4 129.848 88.992H131.832C130.574 90.72 129.4 92.5013 128.312 94.336C127.224 96.1493 126.083 97.952 124.888 99.744C126.915 99.3813 128.846 98.496 130.68 97.088C132.536 95.6587 134.179 93.888 135.608 91.776L135.832 91.872C134.296 94.2187 132.547 96.1067 130.584 97.536C128.643 98.944 126.67 99.808 124.664 100.128C123.832 101.259 122.979 102.4 122.104 103.552C121.251 104.725 120.302 105.771 119.256 106.688C118.232 107.627 117.102 108.384 115.864 108.96C114.627 109.557 113.23 109.856 111.672 109.856C110.968 109.856 110.307 109.76 109.688 109.568C109.048 109.397 108.494 109.152 108.024 108.832C107.555 108.512 107.182 108.128 106.904 107.68C106.627 107.232 106.488 106.752 106.488 106.24C106.488 105.131 106.862 104.32 107.608 103.808C108.334 103.296 109.219 103.04 110.264 103.04V103.136C109.496 103.307 108.931 103.648 108.568 104.16C108.206 104.693 108.024 105.355 108.024 106.144C108.024 106.677 108.131 107.147 108.344 107.552C108.558 107.979 108.835 108.331 109.176 108.608C109.518 108.885 109.912 109.099 110.36 109.248C110.787 109.397 111.235 109.472 111.704 109.472C112.707 109.472 113.678 109.237 114.616 108.768C115.555 108.299 116.462 107.68 117.336 106.912C118.19 106.144 119.011 105.269 119.8 104.288C120.59 103.328 121.336 102.325 122.04 101.28C122.744 100.256 123.395 99.2533 123.992 98.272C124.611 97.2693 125.176 96.3733 125.688 95.584L125.624 95.52C125.283 95.9253 124.867 96.4053 124.376 96.96C123.886 97.4933 123.342 98.0053 122.744 98.496C122.168 98.9867 121.55 99.4027 120.888 99.744C120.227 100.085 119.544 100.256 118.84 100.256C118.158 100.256 117.667 100.117 117.368 99.84C117.07 99.5627 116.92 99.1893 116.92 98.72C116.92 98.2933 117.038 97.8453 117.272 97.376C117.486 96.8853 117.838 96.2773 118.328 95.552C118.819 94.8267 119.438 93.9413 120.184 92.896C120.952 91.8507 121.87 90.5493 122.936 88.992H125.08Z" fill="#2D746E"/>
</svg>
