<svg width="155" height="124" viewBox="0 0 155 124" fill="none" xmlns="http://www.w3.org/2000/svg">
<path d="M109.852 39.307H120.397V37.1126H109.852V27.2089H123.663V25H106V55H124V52.7911H109.852V39.307Z" fill="white"/>
<path d="M35 55H39V25H35V55Z" fill="white"/>
<path d="M70.5039 25H67.9534L53.754 39.6102V25H50V55H53.754V41.9778L56.0179 39.6824L68.8704 55H74L58.7546 36.9105L70.5039 25Z" fill="white"/>
<path d="M135.558 43.264L140.552 29.7346L145.952 43.264H135.558ZM150.643 55H155L142.174 25H140.335L129 55H131.229L134.906 45.0574H146.676L150.643 55Z" fill="white"/>
<path d="M21.8336 49.3192L2.09559 25H0V55.6461H2.16637V31.2088L22.2159 56H24V25H21.8336V49.3192Z" fill="white"/>
<path d="M76 27.2089H86.1314V55H89.8686V27.2089H100V25H76V27.2089Z" fill="white"/>
<path d="M46.016 75.664L46.08 75.28H47.456C48.0747 74.32 48.704 73.3493 49.344 72.368C50.0053 71.3867 50.72 70.4693 51.488 69.616C52.2773 68.7413 53.1413 67.9733 54.08 67.312C55.04 66.6293 56.1067 66.1387 57.28 65.84V65.776C56.7253 65.776 56.16 65.776 55.584 65.776C55.008 65.7547 54.3787 65.7333 53.696 65.712C53.0347 65.6907 52.288 65.68 51.456 65.68C50.6453 65.6587 49.7173 65.648 48.672 65.648C46.56 65.648 44.64 65.8293 42.912 66.192C41.184 66.5547 39.7013 67.0667 38.464 67.728C37.248 68.3893 36.2987 69.168 35.616 70.064C34.9333 70.9387 34.5707 71.9093 34.528 72.976C34.4853 74 34.848 74.8213 35.616 75.44C36.4053 76.0373 37.472 76.336 38.816 76.336C39.6907 76.336 40.5867 76.1973 41.504 75.92C42.4213 75.6213 43.2533 75.216 44 74.704C44.7467 74.1707 45.3547 73.5413 45.824 72.816C46.3147 72.0907 46.56 71.3013 46.56 70.448C46.56 70.0853 46.528 69.7653 46.464 69.488C46.4 69.1893 46.336 68.9227 46.272 68.688L46.592 68.624C46.8267 69.2213 46.944 69.84 46.944 70.48C46.944 71.248 46.72 72.0053 46.272 72.752C45.824 73.4987 45.2267 74.1707 44.48 74.768C43.7333 75.344 42.8587 75.8133 41.856 76.176C40.8747 76.5387 39.8507 76.72 38.784 76.72C37.3547 76.72 36.224 76.4 35.392 75.76C34.56 75.12 34.144 74.224 34.144 73.072C34.144 71.8987 34.5387 70.7787 35.328 69.712C36.1387 68.624 37.3013 67.664 38.816 66.832C40.3307 66 42.1867 65.3387 44.384 64.848C46.6027 64.3573 49.12 64.112 51.936 64.112C53.8133 64.112 55.4453 64.1333 56.832 64.176C58.24 64.2187 59.2853 64.24 59.968 64.24C60.4587 64.24 60.896 64.2187 61.28 64.176C61.6853 64.1333 62.048 64.112 62.368 64.112C62.7947 64.112 63.1573 64.144 63.456 64.208C63.7547 64.2507 63.904 64.432 63.904 64.752C63.904 65.0293 63.8507 65.2427 63.744 65.392C63.6373 65.5413 63.3707 65.648 62.944 65.712C62.5387 65.776 61.9307 65.8187 61.12 65.84C60.3093 65.84 59.2107 65.84 57.824 65.84C56.5867 66.288 55.552 66.8853 54.72 67.632C53.888 68.3573 53.1627 69.1573 52.544 70.032C51.9467 70.8853 51.4027 71.7707 50.912 72.688C50.4427 73.584 49.92 74.4267 49.344 75.216C49.6 75.1733 49.92 75.1413 50.304 75.12C50.7093 75.0987 51.104 75.0667 51.488 75.024C51.872 74.9813 52.224 74.928 52.544 74.864C52.864 74.8 53.0667 74.704 53.152 74.576C53.344 74.32 53.568 74.064 53.824 73.808C54.1013 73.552 54.464 73.424 54.912 73.424C55.1893 73.424 55.456 73.4667 55.712 73.552C54.8373 74.2987 54.016 75.1093 53.248 75.984C52.48 76.8373 51.7867 77.7547 51.168 78.736L50.976 78.64C51.1893 78.0427 51.4453 77.4773 51.744 76.944C52.0427 76.3893 52.3413 75.8347 52.64 75.28C52.3627 75.3227 52.0533 75.3653 51.712 75.408C51.392 75.4293 51.072 75.4613 50.752 75.504C50.432 75.5253 50.1333 75.5467 49.856 75.568C49.5787 75.5893 49.3547 75.6107 49.184 75.632C48.416 76.912 47.584 78.1813 46.688 79.44C45.8133 80.6987 44.832 81.84 43.744 82.864C42.656 83.8667 41.44 84.688 40.096 85.328C38.752 85.9467 37.2373 86.256 35.552 86.256C34.976 86.256 34.3573 86.1813 33.696 86.032C33.056 85.8827 32.4587 85.648 31.904 85.328C31.3493 85.008 30.8907 84.6027 30.528 84.112C30.1653 83.6213 29.984 83.0347 29.984 82.352C29.984 81.9253 30.1013 81.5307 30.336 81.168C30.592 80.8053 30.9547 80.624 31.424 80.624C31.7653 80.624 32.0213 80.7307 32.192 80.944C32.384 81.1573 32.48 81.424 32.48 81.744C32.48 82.0427 32.4053 82.3093 32.256 82.544C32.1067 82.7573 31.8827 82.864 31.584 82.864C31.456 82.864 31.3493 82.8533 31.264 82.832C31.264 82.896 31.2853 83.0987 31.328 83.44C31.392 83.76 31.5627 84.1013 31.84 84.464C32.1173 84.8267 32.5547 85.1573 33.152 85.456C33.7707 85.7333 34.624 85.872 35.712 85.872C37.0987 85.872 38.368 85.5307 39.52 84.848C40.672 84.144 41.7173 83.28 42.656 82.256C43.5947 81.232 44.4373 80.1227 45.184 78.928C45.952 77.7333 46.6453 76.6453 47.264 75.664H46.016ZM65.2903 74.992H67.3703C66.5809 76.1013 65.8236 77.1787 65.0983 78.224C64.3729 79.2693 63.7223 80.24 63.1463 81.136C62.5916 82.0107 62.1436 82.7893 61.8023 83.472C61.4609 84.1333 61.2903 84.656 61.2903 85.04C61.2903 85.5947 61.5783 85.872 62.1543 85.872C62.6023 85.872 63.1676 85.6587 63.8503 85.232C64.5543 84.784 65.3116 84.176 66.1223 83.408C66.9329 82.64 67.7649 81.744 68.6183 80.72C69.4716 79.696 70.2823 78.608 71.0503 77.456L71.2423 77.52C70.6663 78.3947 69.9836 79.344 69.1943 80.368C68.4263 81.3707 67.6156 82.3093 66.7623 83.184C65.9089 84.0587 65.0556 84.7947 64.2023 85.392C63.3489 85.968 62.5489 86.256 61.8023 86.256C61.1836 86.256 60.7249 86.1067 60.4263 85.808C60.1489 85.488 60.0103 85.1147 60.0103 84.688C60.0103 84.3893 60.0529 84.1013 60.1383 83.824C60.2449 83.5253 60.3516 83.2267 60.4583 82.928L60.3943 82.896C60.1169 83.1947 59.7649 83.5467 59.3383 83.952C58.9329 84.336 58.4849 84.6987 57.9943 85.04C57.5249 85.3813 57.0343 85.6693 56.5223 85.904C56.0103 86.1387 55.5196 86.256 55.0503 86.256C54.2609 86.256 53.7063 86.0107 53.3863 85.52C53.0663 85.0293 52.9062 84.4747 52.9062 83.856C52.9062 82.9813 53.1836 82.0213 53.7383 80.976C54.2929 79.9093 54.9969 78.9173 55.8503 78C56.7036 77.0613 57.6316 76.2827 58.6343 75.664C59.6369 75.0453 60.5863 74.736 61.4823 74.736C61.9089 74.736 62.2823 74.8 62.6023 74.928C62.9223 75.0347 63.1889 75.1947 63.4023 75.408C63.6156 75.6 63.7756 75.824 63.8823 76.08C64.0103 76.336 64.1063 76.6027 64.1703 76.88H64.2343L65.2903 74.992ZM54.8263 83.952C54.8263 84.4427 54.9223 84.8267 55.1143 85.104C55.3276 85.36 55.6156 85.488 55.9783 85.488C56.3409 85.488 56.7676 85.36 57.2583 85.104C57.7489 84.8267 58.2609 84.464 58.7943 84.016C59.3276 83.568 59.8503 83.056 60.3623 82.48C60.8956 81.8827 61.3649 81.2533 61.7703 80.592C62.1756 79.9307 62.5063 79.2587 62.7623 78.576C63.0183 77.8933 63.1463 77.2427 63.1463 76.624C63.1463 76.1333 63.0076 75.76 62.7303 75.504C62.4529 75.248 62.1116 75.12 61.7063 75.12C61.0663 75.12 60.3516 75.3973 59.5623 75.952C58.7729 76.5067 58.0263 77.2213 57.3223 78.096C56.6183 78.9493 56.0209 79.8987 55.5303 80.944C55.0609 81.9893 54.8263 82.992 54.8263 83.952ZM65.269 86C65.7383 85.2107 66.2823 84.3467 66.901 83.408C67.4983 82.4693 68.1063 81.52 68.725 80.56C69.365 79.5787 69.9837 78.6187 70.581 77.68C71.1997 76.72 71.7543 75.824 72.245 74.992H74.197L69.973 80.944L70.037 81.008C70.4423 80.5173 70.933 79.92 71.509 79.216C72.085 78.4907 72.7143 77.7973 73.397 77.136C74.101 76.4747 74.8477 75.9093 75.637 75.44C76.4263 74.9707 77.237 74.736 78.069 74.736C78.581 74.736 78.997 74.8747 79.317 75.152C79.6583 75.408 79.829 75.792 79.829 76.304C79.829 76.6027 79.7223 76.9653 79.509 77.392C79.2957 77.8187 79.0397 78.256 78.741 78.704C78.4637 79.1307 78.1757 79.5467 77.877 79.952C77.5783 80.3573 77.3437 80.688 77.173 80.944L77.237 81.008C77.685 80.368 78.2183 79.6853 78.837 78.96C79.477 78.2347 80.149 77.5627 80.853 76.944C81.5783 76.304 82.3143 75.7813 83.061 75.376C83.829 74.9493 84.565 74.736 85.269 74.736C85.8877 74.736 86.3463 74.8853 86.645 75.184C86.965 75.4827 87.125 75.8987 87.125 76.432C87.125 76.7947 86.997 77.2213 86.741 77.712C86.5063 78.2027 86.197 78.7253 85.813 79.28C85.4503 79.8133 85.0557 80.3573 84.629 80.912C84.2023 81.4667 83.797 82 83.413 82.512C83.0503 83.024 82.741 83.504 82.485 83.952C82.2503 84.3787 82.133 84.7413 82.133 85.04C82.133 85.296 82.2077 85.4987 82.357 85.648C82.5277 85.7973 82.7303 85.872 82.965 85.872C83.477 85.872 84.0743 85.6693 84.757 85.264C85.461 84.8587 86.2077 84.2933 86.997 83.568C87.8077 82.8427 88.6503 81.9787 89.525 80.976C90.3997 79.952 91.285 78.832 92.181 77.616L92.437 77.744C91.5623 78.9387 90.6877 80.0587 89.813 81.104C88.9383 82.128 88.085 83.024 87.253 83.792C86.4423 84.56 85.653 85.168 84.885 85.616C84.1383 86.0427 83.445 86.256 82.805 86.256C82.1437 86.256 81.653 86.0747 81.333 85.712C81.013 85.328 80.853 84.8587 80.853 84.304C80.853 83.8987 80.9703 83.4507 81.205 82.96C81.461 82.448 81.7703 81.9253 82.133 81.392C82.517 80.8587 82.9223 80.3253 83.349 79.792C83.7757 79.2587 84.1703 78.7467 84.533 78.256C84.917 77.7653 85.2263 77.3173 85.461 76.912C85.717 76.5067 85.845 76.176 85.845 75.92C85.845 75.6213 85.7597 75.4187 85.589 75.312C85.4397 75.184 85.2477 75.12 85.013 75.12C84.5863 75.12 84.085 75.2693 83.509 75.568C82.933 75.8453 82.325 76.2507 81.685 76.784C81.0663 77.296 80.4263 77.904 79.765 78.608C79.1037 79.2907 78.453 80.0373 77.813 80.848C77.1943 81.6373 76.6077 82.48 76.053 83.376C75.4983 84.2507 75.0183 85.1253 74.613 86H72.565C73.1623 84.9333 73.8023 83.8667 74.485 82.8C75.189 81.7333 75.8397 80.752 76.437 79.856C77.0343 78.9387 77.5357 78.1493 77.941 77.488C78.3463 76.8053 78.549 76.304 78.549 75.984C78.549 75.408 78.2503 75.12 77.653 75.12C77.1197 75.12 76.5223 75.3227 75.861 75.728C75.1997 76.112 74.5277 76.624 73.845 77.264C73.1623 77.8827 72.4903 78.5973 71.829 79.408C71.1677 80.1973 70.5383 80.9973 69.941 81.808C69.365 82.6187 68.853 83.3973 68.405 84.144C67.957 84.8693 67.605 85.488 67.349 86H65.269ZM95.8928 74.992C94.7194 76.6773 93.7274 78.096 92.9168 79.248C92.1061 80.4 91.4448 81.36 90.9328 82.128C90.4421 82.896 90.0794 83.504 89.8448 83.952C89.6314 84.4 89.5247 84.7627 89.5247 85.04C89.5247 85.5947 89.7488 85.872 90.1968 85.872C90.6234 85.872 91.1141 85.7227 91.6688 85.424C92.2448 85.104 92.8421 84.6987 93.4608 84.208C94.0794 83.7173 94.6981 83.1627 95.3168 82.544C95.9354 81.9253 96.5114 81.3173 97.0448 80.72C97.5994 80.1013 98.0794 79.5147 98.4848 78.96C98.9114 78.384 99.2208 77.9147 99.4128 77.552L99.6688 77.712C99.4128 78.1387 99.0608 78.6507 98.6128 79.248C98.1861 79.8453 97.6954 80.464 97.1408 81.104C96.5861 81.7227 95.9994 82.3413 95.3808 82.96C94.7621 83.5787 94.1328 84.1333 93.4928 84.624C92.8528 85.1147 92.2234 85.5093 91.6048 85.808C91.0074 86.1067 90.4528 86.256 89.9408 86.256C89.3648 86.256 88.9381 86.096 88.6608 85.776C88.3834 85.456 88.2447 85.104 88.2447 84.72C88.2447 84.272 88.3407 83.8027 88.5328 83.312C88.7461 82.8 89.0768 82.1813 89.5247 81.456C89.9728 80.7307 90.5488 79.856 91.2528 78.832C91.9781 77.7867 92.8421 76.5067 93.8448 74.992H95.8928ZM97.7488 69.04C98.0474 69.04 98.2928 69.1467 98.4848 69.36C98.6768 69.552 98.7728 69.7973 98.7728 70.096C98.7728 70.3947 98.6768 70.6507 98.4848 70.864C98.2928 71.056 98.0474 71.152 97.7488 71.152C97.4501 71.152 97.2048 71.056 97.0128 70.864C96.8208 70.6507 96.7248 70.3947 96.7248 70.096C96.7248 69.7973 96.8208 69.552 97.0128 69.36C97.2048 69.1467 97.4501 69.04 97.7488 69.04ZM110.123 63.728C108.224 66.608 106.571 69.104 105.163 71.216C103.755 73.3067 102.549 75.0987 101.547 76.592C100.544 78.0853 99.7225 79.3227 99.0825 80.304C98.4425 81.264 97.9412 82.0533 97.5785 82.672C97.2158 83.2907 96.9598 83.7813 96.8105 84.144C96.6825 84.5067 96.6185 84.816 96.6185 85.072C96.6185 85.6053 96.8532 85.872 97.3225 85.872C97.8558 85.872 98.4745 85.6587 99.1785 85.232C99.9038 84.784 100.672 84.1867 101.483 83.44C102.315 82.672 103.157 81.7867 104.01 80.784C104.864 79.76 105.696 78.672 106.507 77.52L106.859 77.648C106.091 78.736 105.28 79.792 104.427 80.816C103.573 81.8187 102.752 82.6933 101.963 83.44C100.917 84.4213 100.011 85.136 99.2425 85.584C98.4958 86.032 97.8132 86.256 97.1945 86.256C96.5332 86.256 96.0532 86.1067 95.7545 85.808C95.4772 85.5093 95.3385 85.1147 95.3385 84.624C95.3385 84.176 95.4132 83.7173 95.5625 83.248C95.7332 82.7573 96.0105 82.1813 96.3945 81.52C96.7785 80.8373 97.2798 80.016 97.8985 79.056C98.5385 78.096 99.3172 76.9227 100.235 75.536C101.173 74.128 102.272 72.464 103.531 70.544C104.789 68.6027 106.24 66.3307 107.883 63.728H110.123ZM110.08 74.992C109.312 76.1013 108.544 77.168 107.776 78.192C107.008 79.216 106.315 80.1547 105.696 81.008C105.099 81.8613 104.608 82.6187 104.224 83.28C103.84 83.92 103.648 84.432 103.648 84.816C103.648 85.4347 103.947 85.744 104.544 85.744C105.163 85.744 105.878 85.4453 106.688 84.848C107.52 84.2507 108.395 83.4613 109.312 82.48C110.23 81.4773 111.158 80.336 112.096 79.056C113.056 77.7547 113.974 76.4 114.848 74.992H116.832C115.574 76.72 114.4 78.5013 113.312 80.336C112.224 82.1493 111.083 83.952 109.888 85.744C111.915 85.3813 113.846 84.496 115.68 83.088C117.536 81.6587 119.179 79.888 120.608 77.776L120.832 77.872C119.296 80.2187 117.547 82.1067 115.584 83.536C113.643 84.944 111.67 85.808 109.664 86.128C108.832 87.2587 107.979 88.4 107.104 89.552C106.251 90.7253 105.302 91.7707 104.256 92.688C103.232 93.6267 102.102 94.384 100.864 94.96C99.6269 95.5573 98.2296 95.856 96.6722 95.856C95.9682 95.856 95.3069 95.76 94.6882 95.568C94.0482 95.3973 93.4936 95.152 93.0242 94.832C92.5549 94.512 92.1816 94.128 91.9042 93.68C91.6269 93.232 91.4882 92.752 91.4882 92.24C91.4882 91.1307 91.8616 90.32 92.6082 89.808C93.3336 89.296 94.2189 89.04 95.2642 89.04V89.136C94.4962 89.3067 93.9309 89.648 93.5682 90.16C93.2056 90.6933 93.0242 91.3547 93.0242 92.144C93.0242 92.6773 93.1309 93.1467 93.3442 93.552C93.5576 93.9787 93.8349 94.3307 94.1762 94.608C94.5176 94.8853 94.9122 95.0987 95.3602 95.248C95.7869 95.3973 96.2349 95.472 96.7042 95.472C97.7069 95.472 98.6776 95.2373 99.6162 94.768C100.555 94.2987 101.462 93.68 102.336 92.912C103.19 92.144 104.011 91.2693 104.8 90.288C105.59 89.328 106.336 88.3253 107.04 87.28C107.744 86.256 108.395 85.2533 108.992 84.272C109.611 83.2693 110.176 82.3733 110.688 81.584L110.624 81.52C110.283 81.9253 109.867 82.4053 109.376 82.96C108.886 83.4933 108.342 84.0053 107.744 84.496C107.168 84.9867 106.55 85.4027 105.888 85.744C105.227 86.0853 104.544 86.256 103.84 86.256C103.158 86.256 102.667 86.1173 102.368 85.84C102.07 85.5627 101.92 85.1893 101.92 84.72C101.92 84.2933 102.038 83.8453 102.272 83.376C102.486 82.8853 102.838 82.2773 103.328 81.552C103.819 80.8267 104.438 79.9413 105.184 78.896C105.952 77.8507 106.87 76.5493 107.936 74.992H110.08Z" fill="white"/>
</svg>
