<svg width="104" height="43" viewBox="0 0 104 43" fill="none" xmlns="http://www.w3.org/2000/svg">
<path d="M73.7227 9.71229H80.6741V8.24179H73.7227V1.60518H82.8271V0.125H71.1836V20.2284H83.0492V18.7482H73.7227V9.71229Z" fill="#007653"/>
<path d="M23.3242 20.2284H25.8537V0.125H23.3242V20.2284Z" fill="#007653"/>
<path d="M47.097 0.125H45.3785L35.8108 9.91547V0.125H33.2812V20.2284H35.8108V11.5021L37.3362 9.96383L45.9964 20.2284H49.4528L39.1802 8.10636L47.097 0.125Z" fill="#007653"/>
<path d="M91.0337 12.3155L94.3645 3.19253L97.9657 12.3155H91.0337ZM101.094 20.2291H104L95.4459 0H94.2198L86.6602 20.2291H88.1469L90.5993 13.5248H98.4484L101.094 20.2291Z" fill="#007653"/>
<path d="M14.8874 16.078L1.4289 0.125H0V20.2284H1.47716V4.19791L15.1481 20.4605H16.3646V0.125H14.8874V16.078Z" fill="#007653"/>
<path d="M50.6172 1.60518H57.501V20.2284H60.0401V1.60518H66.9239V0.125H50.6172V1.60518Z" fill="#007653"/>
<path d="M29.84 29.48V29.24H30.84C31.2267 28.48 31.6467 27.78 32.1 27.14C32.5667 26.5 33.0867 25.9333 33.66 25.44C34.2333 24.9333 34.8667 24.5067 35.56 24.16C36.2667 23.8133 37.0533 23.5533 37.92 23.38V23.34C37.04 23.34 36.1667 23.3267 35.3 23.3C34.4467 23.2733 33.58 23.26 32.7 23.26C32.0733 23.26 31.3867 23.2867 30.64 23.34C29.8933 23.38 29.14 23.46 28.38 23.58C27.62 23.7 26.8867 23.86 26.18 24.06C25.4867 24.26 24.8667 24.5133 24.32 24.82C23.7733 25.1267 23.3333 25.4933 23 25.92C22.68 26.3333 22.52 26.8267 22.52 27.4C22.52 27.7867 22.6267 28.12 22.84 28.4C23.0533 28.68 23.32 28.9133 23.64 29.1C23.96 29.2733 24.3067 29.4 24.68 29.48C25.0667 29.56 25.4267 29.6 25.76 29.6C26.4533 29.6 27.0933 29.5133 27.68 29.34C28.2667 29.1667 28.7667 28.9133 29.18 28.58C29.6067 28.2333 29.9333 27.82 30.16 27.34C30.4 26.8467 30.52 26.28 30.52 25.64C30.52 25.4933 30.52 25.38 30.52 25.3C30.52 25.22 30.5133 25.1467 30.5 25.08H30.74C30.74 25.1867 30.74 25.2867 30.74 25.38C30.7533 25.4733 30.76 25.5667 30.76 25.66C30.76 26.34 30.62 26.98 30.34 27.58C30.0733 28.1667 29.7067 28.68 29.24 29.12C28.7733 29.5467 28.2333 29.8867 27.62 30.14C27.02 30.3933 26.38 30.52 25.7 30.52C25.2867 30.52 24.8733 30.46 24.46 30.34C24.06 30.2067 23.6933 30.02 23.36 29.78C23.04 29.54 22.78 29.24 22.58 28.88C22.38 28.52 22.28 28.1133 22.28 27.66C22.28 26.9 22.46 26.2733 22.82 25.78C23.1933 25.2733 23.6533 24.8333 24.2 24.46C25.0133 23.9 25.8733 23.4533 26.78 23.12C27.7 22.7733 28.64 22.5133 29.6 22.34C30.56 22.1533 31.5267 22.0333 32.5 21.98C33.4867 21.9133 34.44 21.88 35.36 21.88C35.9067 21.88 36.4733 21.8933 37.06 21.92C37.6467 21.9467 38.2067 21.98 38.74 22.02C39.2867 22.0467 39.78 22.0733 40.22 22.1C40.6733 22.1267 41.04 22.1467 41.32 22.16C41.68 22.1733 41.9333 22.2333 42.08 22.34C42.24 22.4467 42.32 22.6333 42.32 22.9C42.32 23.1267 42.1867 23.3067 41.92 23.44C41.6667 23.5733 41.2533 23.64 40.68 23.64C40.2667 23.64 39.8533 23.6267 39.44 23.6C39.04 23.56 38.6267 23.54 38.2 23.54C37.7867 23.54 37.3933 23.64 37.02 23.84C36.6467 24.0267 36.2867 24.28 35.94 24.6C35.5933 24.92 35.2667 25.2867 34.96 25.7C34.6667 26.1 34.3867 26.5133 34.12 26.94C33.8667 27.3533 33.6333 27.7667 33.42 28.18C33.2067 28.58 33.02 28.9333 32.86 29.24C33.1133 29.2133 33.38 29.2 33.66 29.2C33.9533 29.1867 34.2267 29.1467 34.48 29.08C34.7467 29.0133 34.9867 28.9067 35.2 28.76C35.4133 28.6133 35.5733 28.4 35.68 28.12C36.04 28.0933 36.4 28.0733 36.76 28.06C37.1333 28.0467 37.5 28.04 37.86 28.04C37.42 28.3733 36.9733 28.72 36.52 29.08C36.08 29.4267 35.66 29.8 35.26 30.2C34.86 30.6 34.4933 31.0267 34.16 31.48C33.84 31.9333 33.5733 32.42 33.36 32.94H33.2C33.4133 32.2867 33.6667 31.66 33.96 31.06C34.2533 30.4467 34.58 29.86 34.94 29.3C34.8067 29.3267 34.64 29.3533 34.44 29.38C34.2533 29.3933 34.0533 29.4067 33.84 29.42C33.64 29.4333 33.44 29.4467 33.24 29.46C33.0533 29.4733 32.8933 29.48 32.76 29.48C32.2267 30.3467 31.6733 31.1867 31.1 32C30.54 32.8133 29.9067 33.5333 29.2 34.16C28.5067 34.7733 27.72 35.2667 26.84 35.64C25.96 36.0133 24.94 36.2 23.78 36.2C23.38 36.2 22.94 36.1467 22.46 36.04C21.9933 35.9467 21.5533 35.7933 21.14 35.58C20.74 35.3667 20.4 35.0867 20.12 34.74C19.8533 34.3933 19.72 33.9733 19.72 33.48C19.72 33.1067 19.8333 32.78 20.06 32.5C20.2867 32.2067 20.58 32.06 20.94 32.06C21.2333 32.06 21.48 32.1467 21.68 32.32C21.88 32.48 21.98 32.7133 21.98 33.02C21.98 33.22 21.92 33.4133 21.8 33.6C21.68 33.7733 21.4933 33.8733 21.24 33.9C21.2667 34.2733 21.3467 34.5933 21.48 34.86C21.6267 35.1267 21.8133 35.34 22.04 35.5C22.28 35.66 22.5533 35.78 22.86 35.86C23.1667 35.9267 23.4867 35.96 23.82 35.96C24.7133 35.96 25.5 35.7467 26.18 35.32C26.86 34.88 27.4667 34.34 28 33.7C28.5467 33.0467 29.0333 32.34 29.46 31.58C29.9 30.82 30.32 30.12 30.72 29.48H29.84ZM43.798 29.08L45.878 28.96C45.758 29.2 45.5846 29.4933 45.358 29.84C45.1313 30.1733 44.8846 30.54 44.618 30.94C44.3513 31.3267 44.078 31.7333 43.798 32.16C43.5313 32.5733 43.2846 32.98 43.058 33.38C42.8313 33.7667 42.6446 34.1333 42.498 34.48C42.3646 34.8133 42.298 35.1 42.298 35.34C42.298 35.6733 42.4646 35.84 42.798 35.84C43.118 35.84 43.5513 35.6533 44.098 35.28C44.6446 34.9067 45.218 34.4133 45.818 33.8C46.0713 33.5467 46.3246 33.2733 46.578 32.98C46.8446 32.6867 47.098 32.4 47.338 32.12C47.578 31.8267 47.798 31.56 47.998 31.32C48.198 31.0667 48.358 30.86 48.478 30.7L48.618 30.78C48.2713 31.2467 47.8713 31.7667 47.418 32.34C46.9646 32.9 46.418 33.5 45.778 34.14C45.138 34.78 44.5046 35.3067 43.878 35.72C43.2646 36.12 42.6513 36.32 42.038 36.32C41.6113 36.32 41.278 36.2133 41.038 36C40.8113 35.7733 40.698 35.5 40.698 35.18C40.698 35.0733 40.7046 34.9733 40.718 34.88C40.7313 34.7867 40.7513 34.7133 40.778 34.66H40.738C40.3246 35.1267 39.858 35.52 39.338 35.84C38.818 36.16 38.258 36.32 37.658 36.32C37.338 36.32 37.0646 36.26 36.838 36.14C36.6113 36.02 36.4246 35.86 36.278 35.66C36.1446 35.4467 36.0446 35.2133 35.978 34.96C35.9113 34.6933 35.878 34.42 35.878 34.14C35.878 33.4867 36.058 32.8333 36.418 32.18C36.778 31.5267 37.2313 30.94 37.778 30.42C38.3246 29.8867 38.9313 29.46 39.598 29.14C40.278 28.8067 40.9246 28.64 41.538 28.64C42.0046 28.64 42.3713 28.74 42.638 28.94C42.9046 29.14 43.1246 29.4533 43.298 29.88L43.798 29.08ZM37.798 34.2C37.798 34.5867 37.858 34.9267 37.978 35.22C38.1113 35.5 38.3846 35.64 38.798 35.64C39.078 35.6267 39.3713 35.5133 39.678 35.3C39.9846 35.0733 40.278 34.7933 40.558 34.46C40.8513 34.1267 41.1246 33.76 41.378 33.36C41.6446 32.9467 41.8713 32.5333 42.058 32.12C42.258 31.7067 42.4113 31.32 42.518 30.96C42.638 30.5867 42.698 30.2733 42.698 30.02C42.698 29.66 42.6313 29.38 42.498 29.18C42.3646 28.98 42.1046 28.88 41.718 28.88C41.4113 28.88 41.098 28.9733 40.778 29.16C40.4713 29.3467 40.1713 29.5933 39.878 29.9C39.598 30.2067 39.3246 30.5533 39.058 30.94C38.8046 31.3133 38.5846 31.7 38.398 32.1C38.2113 32.5 38.0646 32.8867 37.958 33.26C37.8513 33.62 37.798 33.9333 37.798 34.2ZM53.7491 32.28C54.0024 31.96 54.3024 31.5933 54.6491 31.18C54.9957 30.7533 55.3691 30.3533 55.7691 29.98C56.1824 29.6067 56.6091 29.2933 57.0491 29.04C57.5024 28.7733 57.9491 28.64 58.3891 28.64C58.8157 28.64 59.1557 28.7733 59.4091 29.04C59.6757 29.3067 59.8091 29.6133 59.8091 29.96C59.8091 30.4133 59.6624 30.88 59.3691 31.36C59.0757 31.8267 58.7491 32.2933 58.3891 32.76C58.0291 33.2267 57.7024 33.68 57.4091 34.12C57.1157 34.56 56.9691 34.96 56.9691 35.32C56.9691 35.4667 57.0024 35.5933 57.0691 35.7C57.1357 35.7933 57.2424 35.84 57.3891 35.84C57.9357 35.84 58.8291 35.22 60.0691 33.98C60.5757 33.4733 61.0691 32.94 61.5491 32.38C62.0424 31.8067 62.4691 31.2867 62.8291 30.82L62.9891 30.9C62.8291 31.1 62.6424 31.3267 62.4291 31.58C62.2291 31.8333 62.0091 32.1067 61.7691 32.4C61.5291 32.68 61.2691 32.9733 60.9891 33.28C60.7224 33.5867 60.4491 33.88 60.1691 34.16C59.7957 34.5333 59.4557 34.8533 59.1491 35.12C58.8424 35.3733 58.5557 35.58 58.2891 35.74C58.0357 35.9 57.7891 36.0133 57.5491 36.08C57.3224 36.16 57.0891 36.2 56.8491 36.2C56.3824 36.2 56.0157 36.0733 55.7491 35.82C55.4957 35.5533 55.3691 35.22 55.3691 34.82C55.3691 34.3933 55.5157 33.9333 55.8091 33.44C56.1024 32.9467 56.4291 32.4667 56.7891 32C57.1491 31.5333 57.4757 31.1 57.7691 30.7C58.0624 30.2867 58.2091 29.9533 58.2091 29.7C58.2091 29.5133 58.1557 29.3733 58.0491 29.28C57.9424 29.1733 57.8157 29.12 57.6691 29.12C57.3891 29.12 57.0624 29.2533 56.6891 29.52C56.3291 29.7733 55.9491 30.1067 55.5491 30.52C55.1491 30.9333 54.7491 31.3933 54.3491 31.9C53.9624 32.4067 53.5891 32.9133 53.2291 33.42C52.8824 33.9267 52.5691 34.4 52.2891 34.84C52.0224 35.28 51.8091 35.64 51.6491 35.92L49.5291 36C49.9824 35.28 50.4224 34.6 50.8491 33.96C51.2891 33.3067 51.6757 32.7133 52.0091 32.18C52.3557 31.6333 52.6291 31.1533 52.8291 30.74C53.0424 30.3267 53.1491 30 53.1491 29.76C53.1491 29.6 53.1024 29.4533 53.0091 29.32C52.9157 29.1867 52.7691 29.12 52.5691 29.12C52.2891 29.12 51.9624 29.2533 51.5891 29.52C51.2291 29.7733 50.8491 30.1067 50.4491 30.52C50.0491 30.9333 49.6424 31.3933 49.2291 31.9C48.8291 32.4067 48.4491 32.9133 48.0891 33.42C47.7291 33.9267 47.4091 34.4 47.1291 34.84C46.8491 35.28 46.6291 35.64 46.4691 35.92L44.4491 36C45.1824 34.8267 45.9091 33.66 46.6291 32.5C47.3491 31.3267 48.0557 30.1333 48.7491 28.92L51.0891 28.8L48.4291 32.44L48.4691 32.48C48.7491 32.16 49.0624 31.78 49.4091 31.34C49.7691 30.9 50.1557 30.48 50.5691 30.08C50.9824 29.68 51.4224 29.34 51.8891 29.06C52.3691 28.78 52.8757 28.64 53.4091 28.64C53.7824 28.64 54.0957 28.74 54.3491 28.94C54.6157 29.14 54.7491 29.44 54.7491 29.84C54.7491 30.0267 54.7157 30.2267 54.6491 30.44C54.5824 30.6533 54.4957 30.8667 54.3891 31.08C54.2957 31.28 54.1824 31.4867 54.0491 31.7C53.9291 31.9 53.8157 32.08 53.7091 32.24L53.7491 32.28ZM65.5827 28.96C64.956 29.9467 64.416 30.7933 63.9627 31.5C63.5093 32.1933 63.136 32.7867 62.8427 33.28C62.5627 33.7733 62.3493 34.18 62.2027 34.5C62.0693 34.8067 62.0027 35.06 62.0027 35.26C62.0027 35.42 62.0293 35.5533 62.0827 35.66C62.1493 35.7533 62.2427 35.8 62.3627 35.8C62.6293 35.8 63.0027 35.6467 63.4827 35.34C63.976 35.0333 64.5893 34.5067 65.3227 33.76C65.616 33.4533 65.9027 33.1533 66.1827 32.86C66.4627 32.5533 66.7227 32.26 66.9627 31.98C67.216 31.7 67.436 31.4467 67.6227 31.22C67.8227 30.9933 67.9827 30.8133 68.1027 30.68L68.2827 30.8C68.1227 31.0133 67.9227 31.26 67.6827 31.54C67.456 31.8067 67.2093 32.0933 66.9427 32.4C66.676 32.6933 66.4027 32.9867 66.1227 33.28C65.8427 33.5733 65.5693 33.8533 65.3027 34.12C64.5293 34.8933 63.8627 35.4333 63.3027 35.74C62.756 36.0467 62.2493 36.2 61.7827 36.2C61.3427 36.2 61.0027 36.08 60.7627 35.84C60.5227 35.6 60.4027 35.2867 60.4027 34.9C60.4027 34.6333 60.456 34.36 60.5627 34.08C60.656 33.7867 60.8227 33.4267 61.0627 33C61.3027 32.5733 61.6227 32.0467 62.0227 31.42C62.4227 30.78 62.9227 29.9933 63.5227 29.06L65.5827 28.96ZM66.7427 24.52C66.996 24.52 67.216 24.6133 67.4027 24.8C67.6027 24.9867 67.7027 25.2067 67.7027 25.46C67.7027 25.7267 67.596 25.9733 67.3827 26.2C67.1693 26.4133 66.9293 26.52 66.6627 26.52C66.3693 26.52 66.116 26.4467 65.9027 26.3C65.6893 26.14 65.5827 25.9067 65.5827 25.6C65.5827 25.2933 65.696 25.04 65.9227 24.84C66.1627 24.6267 66.436 24.52 66.7427 24.52ZM75.0184 22.02L68.8384 31.86C68.3184 32.7 67.9051 33.4 67.5984 33.96C67.2918 34.5067 67.1384 34.9533 67.1384 35.3C67.1384 35.66 67.2851 35.84 67.5784 35.84C67.8584 35.84 68.2384 35.6867 68.7184 35.38C69.1984 35.0733 69.7118 34.6467 70.2584 34.1C70.7651 33.5933 71.2651 33.0533 71.7584 32.48C72.2518 31.9067 72.7318 31.3133 73.1984 30.7L73.3784 30.76C73.2184 30.9733 73.0318 31.2133 72.8184 31.48C72.6184 31.7467 72.4051 32.02 72.1784 32.3C71.9518 32.5667 71.7184 32.84 71.4784 33.12C71.2518 33.3867 71.0251 33.6333 70.7984 33.86C70.0251 34.6467 69.3384 35.2333 68.7384 35.62C68.1518 36.0067 67.5384 36.2 66.8984 36.2C65.9918 36.2 65.5384 35.8 65.5384 35C65.5384 34.6267 65.6718 34.16 65.9384 33.6C66.2184 33.0267 66.6451 32.26 67.2184 31.3L72.7984 22.14L75.0184 22.02ZM67.4342 37.58C67.3676 37.5667 67.2476 37.56 67.0742 37.56C66.5009 37.56 66.0609 37.7667 65.7542 38.18C65.4342 38.5933 65.2742 39.1 65.2742 39.7C65.2742 40.4067 65.4942 40.96 65.9342 41.36C66.3609 41.76 66.8942 41.96 67.5342 41.96C68.2142 41.96 68.8542 41.8133 69.4542 41.52C70.0542 41.24 70.6142 40.86 71.1342 40.38C71.6542 39.9133 72.1409 39.3733 72.5942 38.76C73.0609 38.16 73.4876 37.54 73.8742 36.9C74.2742 36.26 74.6476 35.6333 74.9942 35.02C75.3409 34.4067 75.6609 33.8533 75.9542 33.36L75.9142 33.32C75.7142 33.56 75.4609 33.8467 75.1542 34.18C74.8609 34.5 74.5276 34.8133 74.1542 35.12C73.7809 35.4133 73.3876 35.6667 72.9742 35.88C72.5609 36.0933 72.1409 36.2 71.7142 36.2C71.2742 36.2 70.9609 36.0733 70.7742 35.82C70.5742 35.5667 70.4742 35.2667 70.4742 34.92C70.4742 34.5867 70.5676 34.2067 70.7542 33.78C70.9409 33.3533 71.1742 32.8867 71.4542 32.38C71.7476 31.86 72.0742 31.3133 72.4342 30.74C72.7942 30.1667 73.1542 29.5733 73.5142 28.96L75.6342 28.88C74.5142 30.6267 73.6409 32.0067 73.0142 33.02C72.3876 34.0333 72.0742 34.7533 72.0742 35.18C72.0742 35.34 72.1209 35.4733 72.2142 35.58C72.3209 35.6733 72.4476 35.72 72.5942 35.72C72.8342 35.72 73.1409 35.6 73.5142 35.36C73.8876 35.1067 74.2809 34.7733 74.6942 34.36C75.1209 33.9467 75.5476 33.4733 75.9742 32.94C76.4009 32.3933 76.7876 31.8333 77.1342 31.26C77.4276 30.78 77.6876 30.34 77.9142 29.94C78.1409 29.54 78.3076 29.2133 78.4142 28.96L80.3742 28.88C79.6542 30.12 78.9542 31.36 78.2742 32.6C77.6076 33.8267 76.9076 35.0467 76.1742 36.26C76.8142 36.0733 77.4476 35.7867 78.0742 35.4C78.7009 35 79.3009 34.54 79.8742 34.02C80.4609 33.5 81.0009 32.9467 81.4942 32.36C82.0009 31.7733 82.4542 31.2 82.8542 30.64L83.0142 30.78C82.5609 31.4333 82.0609 32.0733 81.5142 32.7C80.9676 33.3133 80.3876 33.88 79.7742 34.4C79.1742 34.9067 78.5542 35.3467 77.9142 35.72C77.2742 36.0933 76.6342 36.36 75.9942 36.52C75.5142 37.3333 74.9742 38.0867 74.3742 38.78C73.7742 39.4733 73.1142 40.0733 72.3942 40.58C71.6742 41.0867 70.8942 41.48 70.0542 41.76C69.2142 42.0533 68.3142 42.2 67.3542 42.2C66.8742 42.2 66.4076 42.1533 65.9542 42.06C65.5009 41.98 65.1009 41.8333 64.7542 41.62C64.4076 41.42 64.1276 41.1467 63.9142 40.8C63.7009 40.4667 63.5942 40.0533 63.5942 39.56C63.5942 39.16 63.6809 38.82 63.8542 38.54C64.0142 38.26 64.2342 38.0267 64.5142 37.84C64.7809 37.6667 65.0942 37.5333 65.4542 37.44C65.8009 37.36 66.1609 37.32 66.5342 37.32C66.6942 37.32 66.8609 37.3267 67.0342 37.34C67.1942 37.3533 67.3276 37.3733 67.4342 37.4V37.58Z" fill="#007653"/>
</svg>
